<?xml version="1.0" encoding="UTF-8" standalone="no"?>
<!-- Created with Inkscape (http://www.inkscape.org/) -->

<svg
   width="26.82008mm"
   height="30.385754mm"
   viewBox="0 0 26.82008 30.385754"
   version="1.1"
   id="svg5"
   xmlns:inkscape="http://www.inkscape.org/namespaces/inkscape"
   xmlns:sodipodi="http://sodipodi.sourceforge.net/DTD/sodipodi-0.dtd"
   xmlns="http://www.w3.org/2000/svg"
   xmlns:svg="http://www.w3.org/2000/svg">
  <sodipodi:namedview
     id="namedview7"
     pagecolor="#ffffff"
     bordercolor="#000000"
     borderopacity="0.25"
     inkscape:showpageshadow="2"
     inkscape:pageopacity="0.0"
     inkscape:pagecheckerboard="0"
     inkscape:deskcolor="#d1d1d1"
     inkscape:document-units="mm"
     showgrid="false" />
  <defs
     id="defs2" />
  <g
     inkscape:label="Layer 1"
     inkscape:groupmode="layer"
     id="layer1"
     transform="translate(-50.185048,-43.921984)">
    <g
       aria-label="e"
       id="text113"
       style="font-size:52.9167px;stroke-width:0.264583">
      <path
         d="m 77.005136,57.900465 v 2.325441 H 55.145992 q 0.310059,4.909264 2.945558,7.493087 2.661338,2.557985 7.389735,2.557985 2.738852,0 5.296837,-0.671794 2.583823,-0.671794 5.11597,-2.015382 v 4.495852 q -2.557985,1.085206 -5.245161,1.653647 -2.687176,0.568441 -5.451867,0.568441 -6.924646,0 -10.981248,-4.030764 -4.030765,-4.030764 -4.030765,-10.903734 0,-7.105513 3.824059,-11.265469 3.849896,-4.185793 10.361131,-4.185793 5.83944,0 9.224248,3.772382 3.410647,3.746543 3.410647,10.206101 z m -4.754235,-1.395264 q -0.05168,-3.901573 -2.196249,-6.227014 -2.118735,-2.325441 -5.632735,-2.325441 -3.979088,0 -6.382043,2.247926 -2.377117,2.247926 -2.738853,6.330367 z"
         id="path273" />
    </g>
  </g>
</svg>
